<?xml version="1.0" encoding="UTF-8" standalone="no"?>
<!DOCTYPE svg PUBLIC "-//W3C//DTD SVG 1.1//EN"
 "http://www.w3.org/Graphics/SVG/1.1/DTD/svg11.dtd">
<!-- Generated by graphviz version 2.26.3 (20100126.1600)
 -->
<!-- Title: the_graph Pages: 1 -->
<svg width="762pt" height="766pt"
 viewBox="0.00 0.00 762.04 765.78" xmlns="http://www.w3.org/2000/svg" xmlns:xlink="http://www.w3.org/1999/xlink">
<g id="graph1" class="graph" transform="scale(1 1) rotate(0) translate(4 761.783)">
<title>the_graph</title>
<polygon fill="white" stroke="white" points="-4,5 -4,-761.783 759.037,-761.783 759.037,5 -4,5"/>
<!-- A -->
<g id="node1" class="node"><title>A</title>
<ellipse fill="#ff3030" stroke="black" stroke-width="3" cx="717.037" cy="-378.891" rx="36" ry="36"/>
</g>
<!-- D -->
<g id="node4" class="node"><title>D</title>
<ellipse fill="#ff3030" stroke="black" stroke-width="3" cx="479.495" cy="-705.841" rx="36" ry="36"/>
</g>
<!-- A&#45;&#45;D -->
<g id="edge2" class="edge"><title>A&#45;&#45;D</title>
<path fill="none" stroke="black" stroke-width="3" d="M695.748,-408.194C650.652,-470.262 545.95,-614.372 500.822,-676.486"/>
</g>
<!-- K -->
<g id="node11" class="node"><title>K</title>
<ellipse fill="#ff3030" stroke="black" stroke-width="3" cx="201.375" cy="-81.1738" rx="36" ry="36"/>
</g>
<!-- A&#45;&#45;K -->
<g id="edge4" class="edge"><title>A&#45;&#45;K</title>
<path fill="none" stroke="black" stroke-width="3" d="M685.556,-360.716C593.388,-307.503 324.83,-152.451 232.771,-99.3"/>
</g>
<!-- N -->
<g id="node14" class="node"><title>N</title>
<ellipse fill="#ff3030" stroke="black" stroke-width="3" cx="603.293" cy="-123.417" rx="36" ry="36"/>
</g>
<!-- A&#45;&#45;N -->
<g id="edge6" class="edge"><title>A&#45;&#45;N</title>
<path fill="none" stroke="black" stroke-width="3" d="M702.284,-345.755C680.463,-296.746 639.825,-205.47 618.02,-156.495"/>
</g>
<!-- O -->
<g id="node15" class="node"><title>O</title>
<ellipse fill="#ff3030" stroke="black" stroke-width="3" cx="687.316" cy="-239.066" rx="36" ry="36"/>
</g>
<!-- A&#45;&#45;O -->
<g id="edge8" class="edge"><title>A&#45;&#45;O</title>
<path fill="none" stroke="black" stroke-width="3" d="M709.537,-343.607C705.032,-322.411 699.319,-295.533 694.814,-274.338"/>
</g>
<!-- B -->
<g id="node2" class="node"><title>B</title>
<ellipse fill="#ff3030" stroke="black" stroke-width="3" cx="687.316" cy="-518.717" rx="36" ry="36"/>
</g>
<!-- C -->
<g id="node3" class="node"><title>C</title>
<ellipse fill="#ff3030" stroke="black" stroke-width="3" cx="603.293" cy="-634.366" rx="36" ry="36"/>
</g>
<!-- B&#45;&#45;C -->
<g id="edge10" class="edge"><title>B&#45;&#45;C</title>
<path fill="none" stroke="black" stroke-width="3" d="M666.113,-547.9C653.376,-565.432 637.225,-587.662 624.488,-605.192"/>
</g>
<!-- B&#45;&#45;D -->
<g id="edge12" class="edge"><title>B&#45;&#45;D</title>
<path fill="none" stroke="black" stroke-width="3" d="M660.147,-543.18C620.208,-579.141 546.095,-645.873 506.341,-681.668"/>
</g>
<!-- H -->
<g id="node8" class="node"><title>H</title>
<ellipse fill="#ff3030" stroke="black" stroke-width="3" cx="37" cy="-450.366" rx="36" ry="36"/>
</g>
<!-- B&#45;&#45;H -->
<g id="edge14" class="edge"><title>B&#45;&#45;H</title>
<path fill="none" stroke="black" stroke-width="3" d="M651.426,-514.945C537.861,-503.009 187.146,-466.147 73.1791,-454.169"/>
</g>
<!-- B&#45;&#45;O -->
<g id="edge16" class="edge"><title>B&#45;&#45;O</title>
<path fill="none" stroke="black" stroke-width="3" d="M687.316,-482.444C687.316,-428.798 687.316,-328.884 687.316,-275.274"/>
</g>
<!-- C&#45;&#45;H -->
<g id="edge18" class="edge"><title>C&#45;&#45;H</title>
<path fill="none" stroke="black" stroke-width="3" d="M568.721,-623.133C467.503,-590.245 172.577,-494.418 71.4782,-461.569"/>
</g>
<!-- C&#45;&#45;K -->
<g id="edge20" class="edge"><title>C&#45;&#45;K</title>
<path fill="none" stroke="black" stroke-width="3" d="M581.967,-605.014C512.346,-509.189 292.196,-206.178 222.649,-110.455"/>
</g>
<!-- L -->
<g id="node12" class="node"><title>L</title>
<ellipse fill="#ff3030" stroke="black" stroke-width="3" cx="337.328" cy="-37" rx="36" ry="36"/>
</g>
<!-- C&#45;&#45;L -->
<g id="edge22" class="edge"><title>C&#45;&#45;L</title>
<path fill="none" stroke="black" stroke-width="3" d="M588.614,-601.398C542.169,-497.079 398.734,-174.92 352.125,-70.2333"/>
</g>
<!-- F -->
<g id="node6" class="node"><title>F</title>
<ellipse fill="#ff3030" stroke="black" stroke-width="3" cx="201.375" cy="-676.609" rx="36" ry="36"/>
</g>
<!-- D&#45;&#45;F -->
<g id="edge24" class="edge"><title>D&#45;&#45;F</title>
<path fill="none" stroke="black" stroke-width="3" d="M443.42,-702.049C390.068,-696.441 290.701,-685.998 237.385,-680.394"/>
</g>
<!-- M -->
<g id="node13" class="node"><title>M</title>
<ellipse fill="#ff3030" stroke="black" stroke-width="3" cx="479.495" cy="-51.9423" rx="36" ry="36"/>
</g>
<!-- D&#45;&#45;M -->
<g id="edge26" class="edge"><title>D&#45;&#45;M</title>
<path fill="none" stroke="black" stroke-width="3" d="M479.495,-669.753C479.495,-555.562 479.495,-202.915 479.495,-88.3206"/>
</g>
<!-- E -->
<g id="node5" class="node"><title>E</title>
<ellipse fill="#ff3030" stroke="black" stroke-width="3" cx="337.328" cy="-720.783" rx="36" ry="36"/>
</g>
<!-- E&#45;&#45;H -->
<g id="edge28" class="edge"><title>E&#45;&#45;H</title>
<path fill="none" stroke="black" stroke-width="3" d="M310.412,-696.547C253.397,-645.211 121.021,-526.019 63.964,-474.645"/>
</g>
<!-- I -->
<g id="node9" class="node"><title>I</title>
<ellipse fill="#ff3030" stroke="black" stroke-width="3" cx="37" cy="-307.417" rx="36" ry="36"/>
</g>
<!-- E&#45;&#45;I -->
<g id="edge30" class="edge"><title>E&#45;&#45;I</title>
<path fill="none" stroke="black" stroke-width="3" d="M315.97,-691.386C260.691,-615.301 113.407,-412.582 58.2491,-336.664"/>
</g>
<!-- E&#45;&#45;K -->
<g id="edge32" class="edge"><title>E&#45;&#45;K</title>
<path fill="none" stroke="black" stroke-width="3" d="M329.825,-685.484C306.083,-573.788 232.764,-228.847 208.939,-116.757"/>
</g>
<!-- G -->
<g id="node7" class="node"><title>G</title>
<ellipse fill="#ff3030" stroke="black" stroke-width="3" cx="95.1428" cy="-580.957" rx="36" ry="36"/>
</g>
<!-- F&#45;&#45;G -->
<g id="edge34" class="edge"><title>F&#45;&#45;G</title>
<path fill="none" stroke="black" stroke-width="3" d="M174.568,-652.472C158.464,-637.972 138.044,-619.585 121.941,-605.086"/>
</g>
<!-- F&#45;&#45;K -->
<g id="edge36" class="edge"><title>F&#45;&#45;K</title>
<path fill="none" stroke="black" stroke-width="3" d="M201.375,-640.258C201.375,-533.831 201.375,-223.728 201.375,-117.426"/>
</g>
<!-- G&#45;&#45;I -->
<g id="edge38" class="edge"><title>G&#45;&#45;I</title>
<path fill="none" stroke="black" stroke-width="3" d="M87.6012,-545.477C76.4475,-493.003 55.6742,-395.272 44.5282,-342.834"/>
</g>
<!-- G&#45;&#45;O -->
<g id="edge40" class="edge"><title>G&#45;&#45;O</title>
<path fill="none" stroke="black" stroke-width="3" d="M126.563,-562.817C229.14,-503.594 553.503,-316.323 655.972,-257.162"/>
</g>
<!-- H&#45;&#45;I -->
<g id="edge42" class="edge"><title>H&#45;&#45;I</title>
<path fill="none" stroke="black" stroke-width="3" d="M37,-414.294C37,-392.624 37,-365.145 37,-343.477"/>
</g>
<!-- H&#45;&#45;K -->
<g id="edge44" class="edge"><title>H&#45;&#45;K</title>
<path fill="none" stroke="black" stroke-width="3" d="M51.7318,-417.278C82.937,-347.19 155.389,-184.46 186.617,-114.321"/>
</g>
<!-- I&#45;&#45;K -->
<g id="edge46" class="edge"><title>I&#45;&#45;K</title>
<path fill="none" stroke="black" stroke-width="3" d="M58.4892,-277.839C90.0785,-234.36 148.698,-153.678 180.141,-110.4"/>
</g>
<!-- J -->
<g id="node10" class="node"><title>J</title>
<ellipse fill="#ff3030" stroke="black" stroke-width="3" cx="95.1428" cy="-176.826" rx="36" ry="36"/>
</g>
<!-- J&#45;&#45;K -->
<g id="edge48" class="edge"><title>J&#45;&#45;K</title>
<path fill="none" stroke="black" stroke-width="3" d="M121.95,-152.689C138.054,-138.189 158.474,-119.802 174.577,-105.303"/>
</g>
<!-- J&#45;&#45;O -->
<g id="edge50" class="edge"><title>J&#45;&#45;O</title>
<path fill="none" stroke="black" stroke-width="3" d="M131.294,-180.625C237.138,-191.75 545.543,-224.165 651.262,-235.276"/>
</g>
<!-- K&#45;&#45;M -->
<g id="edge52" class="edge"><title>K&#45;&#45;M</title>
<path fill="none" stroke="black" stroke-width="3" d="M237.449,-77.3823C290.802,-71.7747 390.168,-61.3308 443.484,-55.7271"/>
</g>
<!-- L&#45;&#45;M -->
<g id="edge54" class="edge"><title>L&#45;&#45;M</title>
<path fill="none" stroke="black" stroke-width="3" d="M373.203,-40.7706C394.754,-43.0357 422.082,-45.908 443.631,-48.1729"/>
</g>
<!-- M&#45;&#45;N -->
<g id="edge56" class="edge"><title>M&#45;&#45;N</title>
<path fill="none" stroke="black" stroke-width="3" d="M510.734,-69.9784C529.501,-80.8134 553.298,-94.5527 572.063,-105.387"/>
</g>
<!-- M&#45;&#45;O -->
<g id="edge58" class="edge"><title>M&#45;&#45;O</title>
<path fill="none" stroke="black" stroke-width="3" d="M506.664,-76.4054C546.602,-112.367 620.716,-179.099 660.47,-214.893"/>
</g>
<!-- N&#45;&#45;O -->
<g id="edge60" class="edge"><title>N&#45;&#45;O</title>
<path fill="none" stroke="black" stroke-width="3" d="M624.495,-152.6C637.233,-170.132 653.384,-192.362 666.12,-209.892"/>
</g>
</g>
</svg>
