<?xml version="1.0" encoding="UTF-8" standalone="no"?>
<!DOCTYPE svg PUBLIC "-//W3C//DTD SVG 1.1//EN"
 "http://www.w3.org/Graphics/SVG/1.1/DTD/svg11.dtd">
<!-- Generated by graphviz version 2.26.3 (20100126.1600)
 -->
<!-- Title: the_graph Pages: 1 -->
<svg width="762pt" height="766pt"
 viewBox="0.00 0.00 762.04 765.78" xmlns="http://www.w3.org/2000/svg" xmlns:xlink="http://www.w3.org/1999/xlink">
<g id="graph1" class="graph" transform="scale(1 1) rotate(0) translate(4 761.783)">
<title>the_graph</title>
<polygon fill="white" stroke="white" points="-4,5 -4,-761.783 759.037,-761.783 759.037,5 -4,5"/>
<!-- A -->
<g id="node1" class="node"><title>A</title>
<ellipse fill="#ff3030" stroke="black" stroke-width="3" cx="717.037" cy="-378.891" rx="36" ry="36"/>
</g>
<!-- D -->
<g id="node4" class="node"><title>D</title>
<ellipse fill="#ff3030" stroke="black" stroke-width="3" cx="479.495" cy="-705.841" rx="36" ry="36"/>
</g>
<!-- A&#45;&#45;D -->
<g id="edge2" class="edge"><title>A&#45;&#45;D</title>
<path fill="none" stroke="black" stroke-width="3" d="M695.748,-408.194C650.652,-470.262 545.95,-614.372 500.822,-676.486"/>
</g>
<!-- E -->
<g id="node5" class="node"><title>E</title>
<ellipse fill="#ff3030" stroke="black" stroke-width="3" cx="337.328" cy="-720.783" rx="36" ry="36"/>
</g>
<!-- A&#45;&#45;E -->
<g id="edge4" class="edge"><title>A&#45;&#45;E</title>
<path fill="none" stroke="black" stroke-width="3" d="M690.034,-403.205C620.144,-466.134 433.93,-633.802 364.194,-696.593"/>
</g>
<!-- F -->
<g id="node6" class="node"><title>F</title>
<ellipse fill="#ff3030" stroke="black" stroke-width="3" cx="201.375" cy="-676.609" rx="36" ry="36"/>
</g>
<!-- A&#45;&#45;F -->
<g id="edge6" class="edge"><title>A&#45;&#45;F</title>
<path fill="none" stroke="black" stroke-width="3" d="M685.556,-397.067C593.388,-450.28 324.83,-605.332 232.771,-658.483"/>
</g>
<!-- G -->
<g id="node7" class="node"><title>G</title>
<ellipse fill="#ff3030" stroke="black" stroke-width="3" cx="95.1428" cy="-580.957" rx="36" ry="36"/>
</g>
<!-- A&#45;&#45;G -->
<g id="edge8" class="edge"><title>A&#45;&#45;G</title>
<path fill="none" stroke="black" stroke-width="3" d="M682.715,-390.043C574.114,-425.33 238.726,-534.304 129.741,-569.716"/>
</g>
<!-- I -->
<g id="node9" class="node"><title>I</title>
<ellipse fill="#ff3030" stroke="black" stroke-width="3" cx="37" cy="-307.417" rx="36" ry="36"/>
</g>
<!-- A&#45;&#45;I -->
<g id="edge10" class="edge"><title>A&#45;&#45;I</title>
<path fill="none" stroke="black" stroke-width="3" d="M680.955,-375.099C563.157,-362.718 190.667,-323.568 72.9947,-311.2"/>
</g>
<!-- K -->
<g id="node11" class="node"><title>K</title>
<ellipse fill="#ff3030" stroke="black" stroke-width="3" cx="201.375" cy="-81.1738" rx="36" ry="36"/>
</g>
<!-- A&#45;&#45;K -->
<g id="edge12" class="edge"><title>A&#45;&#45;K</title>
<path fill="none" stroke="black" stroke-width="3" d="M685.556,-360.716C593.388,-307.503 324.83,-152.451 232.771,-99.3"/>
</g>
<!-- B -->
<g id="node2" class="node"><title>B</title>
<ellipse fill="#ff3030" stroke="black" stroke-width="3" cx="687.316" cy="-518.717" rx="36" ry="36"/>
</g>
<!-- L -->
<g id="node12" class="node"><title>L</title>
<ellipse fill="#ff3030" stroke="black" stroke-width="3" cx="337.328" cy="-37" rx="36" ry="36"/>
</g>
<!-- B&#45;&#45;L -->
<g id="edge14" class="edge"><title>B&#45;&#45;L</title>
<path fill="none" stroke="black" stroke-width="3" d="M665.95,-489.309C603.394,-403.208 421.119,-152.328 358.637,-66.3289"/>
</g>
<!-- N -->
<g id="node14" class="node"><title>N</title>
<ellipse fill="#ff3030" stroke="black" stroke-width="3" cx="603.293" cy="-123.417" rx="36" ry="36"/>
</g>
<!-- B&#45;&#45;N -->
<g id="edge16" class="edge"><title>B&#45;&#45;N</title>
<path fill="none" stroke="black" stroke-width="3" d="M679.786,-483.289C663.835,-408.245 626.799,-234.007 610.836,-158.908"/>
</g>
<!-- C -->
<g id="node3" class="node"><title>C</title>
<ellipse fill="#ff3030" stroke="black" stroke-width="3" cx="603.293" cy="-634.366" rx="36" ry="36"/>
</g>
<!-- H -->
<g id="node8" class="node"><title>H</title>
<ellipse fill="#ff3030" stroke="black" stroke-width="3" cx="37" cy="-450.366" rx="36" ry="36"/>
</g>
<!-- C&#45;&#45;H -->
<g id="edge18" class="edge"><title>C&#45;&#45;H</title>
<path fill="none" stroke="black" stroke-width="3" d="M568.721,-623.133C467.503,-590.245 172.577,-494.418 71.4782,-461.569"/>
</g>
<!-- J -->
<g id="node10" class="node"><title>J</title>
<ellipse fill="#ff3030" stroke="black" stroke-width="3" cx="95.1428" cy="-176.826" rx="36" ry="36"/>
</g>
<!-- C&#45;&#45;J -->
<g id="edge20" class="edge"><title>C&#45;&#45;J</title>
<path fill="none" stroke="black" stroke-width="3" d="M576.331,-610.089C488.308,-530.833 209.969,-280.216 122.039,-201.044"/>
</g>
<!-- C&#45;&#45;K -->
<g id="edge22" class="edge"><title>C&#45;&#45;K</title>
<path fill="none" stroke="black" stroke-width="3" d="M581.967,-605.014C512.346,-509.189 292.196,-206.178 222.649,-110.455"/>
</g>
<!-- D&#45;&#45;K -->
<g id="edge24" class="edge"><title>D&#45;&#45;K</title>
<path fill="none" stroke="black" stroke-width="3" d="M464.738,-672.697C416.561,-564.49 264.221,-222.329 216.096,-114.238"/>
</g>
<!-- D&#45;&#45;L -->
<g id="edge26" class="edge"><title>D&#45;&#45;L</title>
<path fill="none" stroke="black" stroke-width="3" d="M471.951,-670.353C447.325,-554.494 369.453,-188.137 344.853,-72.4021"/>
</g>
<!-- E&#45;&#45;H -->
<g id="edge28" class="edge"><title>E&#45;&#45;H</title>
<path fill="none" stroke="black" stroke-width="3" d="M310.412,-696.547C253.397,-645.211 121.021,-526.019 63.964,-474.645"/>
</g>
<!-- E&#45;&#45;J -->
<g id="edge30" class="edge"><title>E&#45;&#45;J</title>
<path fill="none" stroke="black" stroke-width="3" d="M322.543,-687.575C279.255,-590.349 153.125,-307.055 109.888,-209.944"/>
</g>
<!-- E&#45;&#45;K -->
<g id="edge32" class="edge"><title>E&#45;&#45;K</title>
<path fill="none" stroke="black" stroke-width="3" d="M329.825,-685.484C306.083,-573.788 232.764,-228.847 208.939,-116.757"/>
</g>
<!-- E&#45;&#45;L -->
<g id="edge34" class="edge"><title>E&#45;&#45;L</title>
<path fill="none" stroke="black" stroke-width="3" d="M337.328,-684.502C337.328,-566.056 337.328,-191.514 337.328,-73.193"/>
</g>
<!-- F&#45;&#45;I -->
<g id="edge36" class="edge"><title>F&#45;&#45;I</title>
<path fill="none" stroke="black" stroke-width="3" d="M186.643,-643.521C155.438,-573.433 82.986,-410.703 51.7579,-340.563"/>
</g>
<!-- F&#45;&#45;N -->
<g id="edge38" class="edge"><title>F&#45;&#45;N</title>
<path fill="none" stroke="black" stroke-width="3" d="M222.7,-647.258C292.321,-551.432 512.472,-248.421 582.019,-152.698"/>
</g>
<!-- G&#45;&#45;H -->
<g id="edge40" class="edge"><title>G&#45;&#45;H</title>
<path fill="none" stroke="black" stroke-width="3" d="M80.4709,-548.003C71.6569,-528.207 60.4804,-503.104 51.6672,-483.309"/>
</g>
<!-- G&#45;&#45;N -->
<g id="edge42" class="edge"><title>G&#45;&#45;N</title>
<path fill="none" stroke="black" stroke-width="3" d="M122.104,-556.681C210.128,-477.424 488.466,-226.807 576.396,-147.635"/>
</g>
<!-- O -->
<g id="node15" class="node"><title>O</title>
<ellipse fill="#ff3030" stroke="black" stroke-width="3" cx="687.316" cy="-239.066" rx="36" ry="36"/>
</g>
<!-- G&#45;&#45;O -->
<g id="edge44" class="edge"><title>G&#45;&#45;O</title>
<path fill="none" stroke="black" stroke-width="3" d="M126.563,-562.817C229.14,-503.594 553.503,-316.323 655.972,-257.162"/>
</g>
<!-- H&#45;&#45;K -->
<g id="edge46" class="edge"><title>H&#45;&#45;K</title>
<path fill="none" stroke="black" stroke-width="3" d="M51.7318,-417.278C82.937,-347.19 155.389,-184.46 186.617,-114.321"/>
</g>
<!-- H&#45;&#45;N -->
<g id="edge48" class="edge"><title>H&#45;&#45;N</title>
<path fill="none" stroke="black" stroke-width="3" d="M68.253,-432.322C167.145,-375.227 472.546,-198.903 571.788,-141.606"/>
</g>
<!-- M -->
<g id="node13" class="node"><title>M</title>
<ellipse fill="#ff3030" stroke="black" stroke-width="3" cx="479.495" cy="-51.9423" rx="36" ry="36"/>
</g>
<!-- I&#45;&#45;M -->
<g id="edge50" class="edge"><title>I&#45;&#45;M</title>
<path fill="none" stroke="black" stroke-width="3" d="M68.4684,-289.248C149.914,-242.225 366.919,-116.938 448.187,-70.0179"/>
</g>
<!-- I&#45;&#45;O -->
<g id="edge52" class="edge"><title>I&#45;&#45;O</title>
<path fill="none" stroke="black" stroke-width="3" d="M72.8901,-303.644C186.455,-291.708 537.171,-254.847 651.137,-242.868"/>
</g>
<!-- J&#45;&#45;M -->
<g id="edge54" class="edge"><title>J&#45;&#45;M</title>
<path fill="none" stroke="black" stroke-width="3" d="M129.59,-165.633C202.555,-141.925 371.967,-86.88 444.987,-63.1546"/>
</g>
<!-- K&#45;&#45;L -->
<g id="edge56" class="edge"><title>K&#45;&#45;L</title>
<path fill="none" stroke="black" stroke-width="3" d="M235.682,-70.0269C256.291,-63.3305 282.425,-54.8391 303.032,-48.1433"/>
</g>
<!-- K&#45;&#45;M -->
<g id="edge58" class="edge"><title>K&#45;&#45;M</title>
<path fill="none" stroke="black" stroke-width="3" d="M237.449,-77.3823C290.802,-71.7747 390.168,-61.3308 443.484,-55.7271"/>
</g>
<!-- M&#45;&#45;N -->
<g id="edge60" class="edge"><title>M&#45;&#45;N</title>
<path fill="none" stroke="black" stroke-width="3" d="M510.734,-69.9784C529.501,-80.8134 553.298,-94.5527 572.063,-105.387"/>
</g>
</g>
</svg>
