<?xml version="1.0" encoding="UTF-8" standalone="no"?>
<!DOCTYPE svg PUBLIC "-//W3C//DTD SVG 1.1//EN"
 "http://www.w3.org/Graphics/SVG/1.1/DTD/svg11.dtd">
<!-- Generated by graphviz version 2.26.3 (20100126.1600)
 -->
<!-- Title: the_graph Pages: 1 -->
<svg width="999pt" height="999pt"
 viewBox="0.00 0.00 998.73 998.73" xmlns="http://www.w3.org/2000/svg" xmlns:xlink="http://www.w3.org/1999/xlink">
<g id="graph1" class="graph" transform="scale(1 1) rotate(0) translate(4 994.733)">
<title>the_graph</title>
<polygon fill="white" stroke="white" points="-4,5 -4,-994.733 995.733,-994.733 995.733,5 -4,5"/>
<!-- A -->
<g id="node1" class="node"><title>A</title>
<ellipse fill="#ff3030" stroke="black" cx="953.733" cy="-495.366" rx="36" ry="36"/>
<text text-anchor="middle" x="953.733" y="-492.266" font-family="Times Roman,serif" font-size="14.00">0</text>
</g>
<!-- B -->
<g id="node2" class="node"><title>B</title>
<ellipse fill="#ff3030" stroke="black" cx="931.298" cy="-637.009" rx="36" ry="36"/>
<text text-anchor="middle" x="931.298" y="-633.909" font-family="Times Roman,serif" font-size="14.00">1</text>
</g>
<!-- A&#45;&#45;B -->
<g id="edge2" class="edge"><title>A&#45;&#45;B</title>
<path fill="none" stroke="black" d="M948.071,-531.109C944.671,-552.581 940.358,-579.808 936.958,-601.278"/>
</g>
<!-- C -->
<g id="node3" class="node"><title>C</title>
<ellipse fill="#ff3030" stroke="black" cx="866.192" cy="-764.787" rx="36" ry="36"/>
<text text-anchor="middle" x="866.192" y="-761.687" font-family="Times Roman,serif" font-size="14.00">2</text>
</g>
<!-- A&#45;&#45;C -->
<g id="edge4" class="edge"><title>A&#45;&#45;C</title>
<path fill="none" stroke="black" d="M942.557,-529.762C925.779,-581.399 894.26,-678.404 877.44,-730.17"/>
</g>
<!-- M -->
<g id="node13" class="node"><title>M</title>
<ellipse fill="#ff3030" stroke="black" cx="124.54" cy="-225.945" rx="36" ry="36"/>
<text text-anchor="middle" x="124.54" y="-222.845" font-family="Times Roman,serif" font-size="14.00">12</text>
</g>
<!-- A&#45;&#45;M -->
<g id="edge6" class="edge"><title>A&#45;&#45;M</title>
<path fill="none" stroke="black" d="M919.421,-484.218C784.791,-440.474 293.445,-280.826 158.839,-237.09"/>
</g>
<!-- S -->
<g id="node19" class="node"><title>S</title>
<ellipse fill="#ff3030" stroke="black" cx="866.192" cy="-225.945" rx="36" ry="36"/>
<text text-anchor="middle" x="866.192" y="-222.845" font-family="Times Roman,serif" font-size="14.00">18</text>
</g>
<!-- A&#45;&#45;S -->
<g id="edge8" class="edge"><title>A&#45;&#45;S</title>
<path fill="none" stroke="black" d="M942.557,-460.97C925.779,-409.333 894.26,-312.328 877.44,-260.562"/>
</g>
<!-- T -->
<g id="node20" class="node"><title>T</title>
<ellipse fill="#ff3030" stroke="black" cx="931.298" cy="-353.723" rx="36" ry="36"/>
<text text-anchor="middle" x="931.298" y="-350.623" font-family="Times Roman,serif" font-size="14.00">19</text>
</g>
<!-- A&#45;&#45;T -->
<g id="edge10" class="edge"><title>A&#45;&#45;T</title>
<path fill="none" stroke="black" d="M948.071,-459.624C944.671,-438.152 940.358,-410.924 936.958,-389.454"/>
</g>
<!-- B&#45;&#45;C -->
<g id="edge12" class="edge"><title>B&#45;&#45;C</title>
<path fill="none" stroke="black" d="M914.869,-669.253C905,-688.623 892.485,-713.185 882.616,-732.554"/>
</g>
<!-- D -->
<g id="node4" class="node"><title>D</title>
<ellipse fill="#ff3030" stroke="black" cx="764.787" cy="-866.192" rx="36" ry="36"/>
<text text-anchor="middle" x="764.787" y="-863.092" font-family="Times Roman,serif" font-size="14.00">3</text>
</g>
<!-- B&#45;&#45;D -->
<g id="edge14" class="edge"><title>B&#45;&#45;D</title>
<path fill="none" stroke="black" d="M909.871,-666.502C877.899,-710.508 818.057,-792.873 786.132,-836.813"/>
</g>
<!-- E -->
<g id="node5" class="node"><title>E</title>
<ellipse fill="#ff3030" stroke="black" cx="637.009" cy="-931.298" rx="36" ry="36"/>
<text text-anchor="middle" x="637.009" y="-928.198" font-family="Times Roman,serif" font-size="14.00">4</text>
</g>
<!-- B&#45;&#45;E -->
<g id="edge16" class="edge"><title>B&#45;&#45;E</title>
<path fill="none" stroke="black" d="M905.697,-662.611C850.04,-718.267 718.554,-849.754 662.761,-905.547"/>
</g>
<!-- F -->
<g id="node6" class="node"><title>F</title>
<ellipse fill="#ff3030" stroke="black" cx="495.366" cy="-953.733" rx="36" ry="36"/>
<text text-anchor="middle" x="495.366" y="-950.633" font-family="Times Roman,serif" font-size="14.00">5</text>
</g>
<!-- B&#45;&#45;F -->
<g id="edge18" class="edge"><title>B&#45;&#45;F</title>
<path fill="none" stroke="black" d="M902.019,-658.282C822.604,-715.98 603.784,-874.962 524.518,-932.552"/>
</g>
<!-- R -->
<g id="node18" class="node"><title>R</title>
<ellipse fill="#ff3030" stroke="black" cx="764.787" cy="-124.54" rx="36" ry="36"/>
<text text-anchor="middle" x="764.787" y="-121.44" font-family="Times Roman,serif" font-size="14.00">17</text>
</g>
<!-- B&#45;&#45;R -->
<g id="edge20" class="edge"><title>B&#45;&#45;R</title>
<path fill="none" stroke="black" d="M920.115,-602.589C889.781,-509.231 806.199,-251.993 775.922,-158.811"/>
</g>
<!-- I -->
<g id="node9" class="node"><title>I</title>
<ellipse fill="#ff3030" stroke="black" cx="124.54" cy="-764.787" rx="36" ry="36"/>
<text text-anchor="middle" x="124.54" y="-761.687" font-family="Times Roman,serif" font-size="14.00">8</text>
</g>
<!-- C&#45;&#45;I -->
<g id="edge22" class="edge"><title>C&#45;&#45;I</title>
<path fill="none" stroke="black" d="M830.17,-764.787C704.562,-764.787 286.732,-764.787 160.783,-764.787"/>
</g>
<!-- K -->
<g id="node11" class="node"><title>K</title>
<ellipse fill="#ff3030" stroke="black" cx="37" cy="-495.366" rx="36" ry="36"/>
<text text-anchor="middle" x="37" y="-492.266" font-family="Times Roman,serif" font-size="14.00">10</text>
</g>
<!-- C&#45;&#45;K -->
<g id="edge24" class="edge"><title>C&#45;&#45;K</title>
<path fill="none" stroke="black" d="M831.88,-753.639C697.251,-709.895 205.904,-550.247 71.2985,-506.511"/>
</g>
<!-- D&#45;&#45;E -->
<g id="edge26" class="edge"><title>D&#45;&#45;E</title>
<path fill="none" stroke="black" d="M732.543,-882.621C713.173,-892.491 688.611,-905.006 669.243,-914.875"/>
</g>
<!-- O -->
<g id="node15" class="node"><title>O</title>
<ellipse fill="#ff3030" stroke="black" cx="353.723" cy="-59.434" rx="36" ry="36"/>
<text text-anchor="middle" x="353.723" y="-56.334" font-family="Times Roman,serif" font-size="14.00">14</text>
</g>
<!-- D&#45;&#45;O -->
<g id="edge28" class="edge"><title>D&#45;&#45;O</title>
<path fill="none" stroke="black" d="M748.419,-834.069C682.419,-704.536 436.223,-221.35 370.138,-91.6496"/>
</g>
<!-- D&#45;&#45;S -->
<g id="edge30" class="edge"><title>D&#45;&#45;S</title>
<path fill="none" stroke="black" d="M770.456,-830.398C788.225,-718.213 842.701,-374.263 860.5,-261.882"/>
</g>
<!-- J -->
<g id="node10" class="node"><title>J</title>
<ellipse fill="#ff3030" stroke="black" cx="59.434" cy="-637.009" rx="36" ry="36"/>
<text text-anchor="middle" x="59.434" y="-633.909" font-family="Times Roman,serif" font-size="14.00">9</text>
</g>
<!-- E&#45;&#45;J -->
<g id="edge32" class="edge"><title>E&#45;&#45;J</title>
<path fill="none" stroke="black" d="M604.719,-914.846C503.515,-863.28 193.233,-705.183 91.8531,-653.528"/>
</g>
<!-- P -->
<g id="node16" class="node"><title>P</title>
<ellipse fill="#ff3030" stroke="black" cx="495.366" cy="-37" rx="36" ry="36"/>
<text text-anchor="middle" x="495.366" y="-33.9" font-family="Times Roman,serif" font-size="14.00">15</text>
</g>
<!-- E&#45;&#45;P -->
<g id="edge34" class="edge"><title>E&#45;&#45;P</title>
<path fill="none" stroke="black" d="M631.369,-895.689C608.627,-752.101 523.794,-216.485 501.022,-72.7112"/>
</g>
<!-- G -->
<g id="node7" class="node"><title>G</title>
<ellipse fill="#ff3030" stroke="black" cx="353.723" cy="-931.298" rx="36" ry="36"/>
<text text-anchor="middle" x="353.723" y="-928.198" font-family="Times Roman,serif" font-size="14.00">6</text>
</g>
<!-- F&#45;&#45;G -->
<g id="edge36" class="edge"><title>F&#45;&#45;G</title>
<path fill="none" stroke="black" d="M459.624,-948.071C438.152,-944.671 410.924,-940.358 389.454,-936.958"/>
</g>
<!-- H -->
<g id="node8" class="node"><title>H</title>
<ellipse fill="#ff3030" stroke="black" cx="225.945" cy="-866.192" rx="36" ry="36"/>
<text text-anchor="middle" x="225.945" y="-863.092" font-family="Times Roman,serif" font-size="14.00">7</text>
</g>
<!-- F&#45;&#45;H -->
<g id="edge38" class="edge"><title>F&#45;&#45;H</title>
<path fill="none" stroke="black" d="M460.97,-942.557C409.333,-925.779 312.328,-894.26 260.562,-877.44"/>
</g>
<!-- F&#45;&#45;K -->
<g id="edge40" class="edge"><title>F&#45;&#45;K</title>
<path fill="none" stroke="black" d="M469.74,-928.107C389.425,-847.791 143.184,-601.55 62.7279,-521.094"/>
</g>
<!-- F&#45;&#45;T -->
<g id="edge42" class="edge"><title>F&#45;&#45;T</title>
<path fill="none" stroke="black" d="M516.687,-924.387C590.705,-822.51 836.064,-484.802 910.018,-383.013"/>
</g>
<!-- G&#45;&#45;H -->
<g id="edge44" class="edge"><title>G&#45;&#45;H</title>
<path fill="none" stroke="black" d="M321.48,-914.869C302.109,-905 277.547,-892.485 258.179,-882.616"/>
</g>
<!-- G&#45;&#45;I -->
<g id="edge46" class="edge"><title>G&#45;&#45;I</title>
<path fill="none" stroke="black" d="M324.231,-909.871C280.225,-877.899 197.86,-818.057 153.919,-786.132"/>
</g>
<!-- H&#45;&#45;I -->
<g id="edge48" class="edge"><title>H&#45;&#45;I</title>
<path fill="none" stroke="black" d="M200.357,-840.604C184.984,-825.231 165.492,-805.739 150.121,-790.368"/>
</g>
<!-- N -->
<g id="node14" class="node"><title>N</title>
<ellipse fill="#ff3030" stroke="black" cx="225.945" cy="-124.54" rx="36" ry="36"/>
<text text-anchor="middle" x="225.945" y="-121.44" font-family="Times Roman,serif" font-size="14.00">13</text>
</g>
<!-- H&#45;&#45;N -->
<g id="edge50" class="edge"><title>H&#45;&#45;N</title>
<path fill="none" stroke="black" d="M225.945,-830.17C225.945,-704.562 225.945,-286.732 225.945,-160.783"/>
</g>
<!-- I&#45;&#45;N -->
<g id="edge52" class="edge"><title>I&#45;&#45;N</title>
<path fill="none" stroke="black" d="M130.209,-728.993C147.978,-616.808 202.454,-272.858 220.254,-160.477"/>
</g>
<!-- Q -->
<g id="node17" class="node"><title>Q</title>
<ellipse fill="#ff3030" stroke="black" cx="637.009" cy="-59.434" rx="36" ry="36"/>
<text text-anchor="middle" x="637.009" y="-56.334" font-family="Times Roman,serif" font-size="14.00">16</text>
</g>
<!-- I&#45;&#45;Q -->
<g id="edge54" class="edge"><title>I&#45;&#45;Q</title>
<path fill="none" stroke="black" d="M145.908,-735.377C229.352,-620.526 532.729,-202.963 615.834,-88.5791"/>
</g>
<!-- L -->
<g id="node12" class="node"><title>L</title>
<ellipse fill="#ff3030" stroke="black" cx="59.434" cy="-353.723" rx="36" ry="36"/>
<text text-anchor="middle" x="59.434" y="-350.623" font-family="Times Roman,serif" font-size="14.00">11</text>
</g>
<!-- J&#45;&#45;L -->
<g id="edge56" class="edge"><title>J&#45;&#45;L</title>
<path fill="none" stroke="black" d="M59.434,-600.843C59.434,-546.549 59.434,-444.552 59.434,-390.122"/>
</g>
<!-- J&#45;&#45;P -->
<g id="edge58" class="edge"><title>J&#45;&#45;P</title>
<path fill="none" stroke="black" d="M80.7551,-607.663C154.773,-505.787 400.132,-168.079 474.086,-66.2894"/>
</g>
<!-- J&#45;&#45;T -->
<g id="edge60" class="edge"><title>J&#45;&#45;T</title>
<path fill="none" stroke="black" d="M93.8807,-625.817C233.611,-580.416 757.317,-410.253 896.921,-364.893"/>
</g>
<!-- K&#45;&#45;N -->
<g id="edge62" class="edge"><title>K&#45;&#45;N</title>
<path fill="none" stroke="black" d="M53.4371,-463.107C89.2159,-392.887 173.802,-226.876 209.546,-156.725"/>
</g>
<!-- L&#45;&#45;M -->
<g id="edge64" class="edge"><title>L&#45;&#45;M</title>
<path fill="none" stroke="black" d="M75.8631,-321.48C85.7327,-302.109 98.2478,-277.547 108.116,-258.179"/>
</g>
<!-- L&#45;&#45;N -->
<g id="edge66" class="edge"><title>L&#45;&#45;N</title>
<path fill="none" stroke="black" d="M80.8616,-324.231C112.834,-280.225 172.676,-197.86 204.6,-153.919"/>
</g>
<!-- M&#45;&#45;N -->
<g id="edge68" class="edge"><title>M&#45;&#45;N</title>
<path fill="none" stroke="black" d="M150.129,-200.357C165.501,-184.984 184.994,-165.492 200.365,-150.121"/>
</g>
<!-- N&#45;&#45;P -->
<g id="edge70" class="edge"><title>N&#45;&#45;P</title>
<path fill="none" stroke="black" d="M260.341,-113.364C311.979,-96.5863 408.983,-65.0676 460.749,-48.2477"/>
</g>
<!-- O&#45;&#45;P -->
<g id="edge72" class="edge"><title>O&#45;&#45;P</title>
<path fill="none" stroke="black" d="M389.466,-53.773C410.938,-50.3722 438.165,-46.0598 459.635,-42.6592"/>
</g>
<!-- O&#45;&#45;Q -->
<g id="edge74" class="edge"><title>O&#45;&#45;Q</title>
<path fill="none" stroke="black" d="M389.889,-59.434C444.184,-59.434 546.181,-59.434 600.611,-59.434"/>
</g>
<!-- P&#45;&#45;Q -->
<g id="edge76" class="edge"><title>P&#45;&#45;Q</title>
<path fill="none" stroke="black" d="M531.109,-42.6611C552.581,-46.0619 579.808,-50.3743 601.278,-53.7748"/>
</g>
<!-- Q&#45;&#45;R -->
<g id="edge78" class="edge"><title>Q&#45;&#45;R</title>
<path fill="none" stroke="black" d="M669.253,-75.8631C688.623,-85.7327 713.185,-98.2478 732.554,-108.116"/>
</g>
<!-- R&#45;&#45;T -->
<g id="edge80" class="edge"><title>R&#45;&#45;T</title>
<path fill="none" stroke="black" d="M786.215,-154.033C818.187,-198.039 878.029,-280.404 909.953,-324.344"/>
</g>
</g>
</svg>
