<?xml version="1.0" encoding="UTF-8" standalone="no"?>
<!DOCTYPE svg PUBLIC "-//W3C//DTD SVG 1.1//EN"
 "http://www.w3.org/Graphics/SVG/1.1/DTD/svg11.dtd">
<!-- Generated by graphviz version 2.26.3 (20100126.1600)
 -->
<!-- Title: the_graph Pages: 1 -->
<svg width="999pt" height="999pt"
 viewBox="0.00 0.00 998.73 998.73" xmlns="http://www.w3.org/2000/svg" xmlns:xlink="http://www.w3.org/1999/xlink">
<g id="graph1" class="graph" transform="scale(1 1) rotate(0) translate(4 994.733)">
<title>the_graph</title>
<polygon fill="white" stroke="white" points="-4,5 -4,-994.733 995.733,-994.733 995.733,5 -4,5"/>
<!-- A -->
<g id="node1" class="node"><title>A</title>
<ellipse fill="#ff3030" stroke="black" cx="953.733" cy="-495.366" rx="36" ry="36"/>
<text text-anchor="middle" x="953.733" y="-492.266" font-family="Times Roman,serif" font-size="14.00">0</text>
</g>
<!-- B -->
<g id="node2" class="node"><title>B</title>
<ellipse fill="#ff3030" stroke="black" cx="931.298" cy="-637.009" rx="36" ry="36"/>
<text text-anchor="middle" x="931.298" y="-633.909" font-family="Times Roman,serif" font-size="14.00">1</text>
</g>
<!-- A&#45;&#45;B -->
<g id="edge2" class="edge"><title>A&#45;&#45;B</title>
<path fill="none" stroke="black" d="M948.071,-531.109C944.671,-552.581 940.358,-579.808 936.958,-601.278"/>
</g>
<!-- C -->
<g id="node3" class="node"><title>C</title>
<ellipse fill="#ff3030" stroke="black" cx="866.192" cy="-764.787" rx="36" ry="36"/>
<text text-anchor="middle" x="866.192" y="-761.687" font-family="Times Roman,serif" font-size="14.00">2</text>
</g>
<!-- A&#45;&#45;C -->
<g id="edge4" class="edge"><title>A&#45;&#45;C</title>
<path fill="none" stroke="black" d="M942.557,-529.762C925.779,-581.399 894.26,-678.404 877.44,-730.17"/>
</g>
<!-- S -->
<g id="node19" class="node"><title>S</title>
<ellipse fill="#ff3030" stroke="black" cx="866.192" cy="-225.945" rx="36" ry="36"/>
<text text-anchor="middle" x="866.192" y="-222.845" font-family="Times Roman,serif" font-size="14.00">18</text>
</g>
<!-- A&#45;&#45;S -->
<g id="edge6" class="edge"><title>A&#45;&#45;S</title>
<path fill="none" stroke="black" d="M942.557,-460.97C925.779,-409.333 894.26,-312.328 877.44,-260.562"/>
</g>
<!-- B&#45;&#45;C -->
<g id="edge8" class="edge"><title>B&#45;&#45;C</title>
<path fill="none" stroke="black" d="M914.869,-669.253C905,-688.623 892.485,-713.185 882.616,-732.554"/>
</g>
<!-- D -->
<g id="node4" class="node"><title>D</title>
<ellipse fill="#ff3030" stroke="black" cx="764.787" cy="-866.192" rx="36" ry="36"/>
<text text-anchor="middle" x="764.787" y="-863.092" font-family="Times Roman,serif" font-size="14.00">3</text>
</g>
<!-- B&#45;&#45;D -->
<g id="edge10" class="edge"><title>B&#45;&#45;D</title>
<path fill="none" stroke="black" d="M909.871,-666.502C877.899,-710.508 818.057,-792.873 786.132,-836.813"/>
</g>
<!-- C&#45;&#45;D -->
<g id="edge12" class="edge"><title>C&#45;&#45;D</title>
<path fill="none" stroke="black" d="M840.604,-790.376C825.231,-805.748 805.739,-825.241 790.368,-840.612"/>
</g>
<!-- E -->
<g id="node5" class="node"><title>E</title>
<ellipse fill="#ff3030" stroke="black" cx="637.009" cy="-931.298" rx="36" ry="36"/>
<text text-anchor="middle" x="637.009" y="-928.198" font-family="Times Roman,serif" font-size="14.00">4</text>
</g>
<!-- C&#45;&#45;E -->
<g id="edge14" class="edge"><title>C&#45;&#45;E</title>
<path fill="none" stroke="black" d="M836.7,-786.215C792.694,-818.187 710.329,-878.029 666.388,-909.953"/>
</g>
<!-- D&#45;&#45;E -->
<g id="edge16" class="edge"><title>D&#45;&#45;E</title>
<path fill="none" stroke="black" d="M732.543,-882.621C713.173,-892.491 688.611,-905.006 669.243,-914.875"/>
</g>
<!-- F -->
<g id="node6" class="node"><title>F</title>
<ellipse fill="#ff3030" stroke="black" cx="495.366" cy="-953.733" rx="36" ry="36"/>
<text text-anchor="middle" x="495.366" y="-950.633" font-family="Times Roman,serif" font-size="14.00">5</text>
</g>
<!-- D&#45;&#45;F -->
<g id="edge18" class="edge"><title>D&#45;&#45;F</title>
<path fill="none" stroke="black" d="M730.391,-877.368C678.754,-894.146 581.749,-925.665 529.983,-942.485"/>
</g>
<!-- L -->
<g id="node12" class="node"><title>L</title>
<ellipse fill="#ff3030" stroke="black" cx="59.434" cy="-353.723" rx="36" ry="36"/>
<text text-anchor="middle" x="59.434" y="-350.623" font-family="Times Roman,serif" font-size="14.00">11</text>
</g>
<!-- D&#45;&#45;L -->
<g id="edge20" class="edge"><title>D&#45;&#45;L</title>
<path fill="none" stroke="black" d="M735.377,-844.825C620.526,-761.38 202.963,-458.003 88.5791,-374.898"/>
</g>
<!-- E&#45;&#45;F -->
<g id="edge22" class="edge"><title>E&#45;&#45;F</title>
<path fill="none" stroke="black" d="M601.267,-936.96C579.795,-940.36 552.567,-944.673 531.097,-948.073"/>
</g>
<!-- G -->
<g id="node7" class="node"><title>G</title>
<ellipse fill="#ff3030" stroke="black" cx="353.723" cy="-931.298" rx="36" ry="36"/>
<text text-anchor="middle" x="353.723" y="-928.198" font-family="Times Roman,serif" font-size="14.00">6</text>
</g>
<!-- E&#45;&#45;G -->
<g id="edge24" class="edge"><title>E&#45;&#45;G</title>
<path fill="none" stroke="black" d="M600.843,-931.298C546.549,-931.298 444.552,-931.298 390.122,-931.298"/>
</g>
<!-- F&#45;&#45;G -->
<g id="edge26" class="edge"><title>F&#45;&#45;G</title>
<path fill="none" stroke="black" d="M459.624,-948.071C438.152,-944.671 410.924,-940.358 389.454,-936.958"/>
</g>
<!-- H -->
<g id="node8" class="node"><title>H</title>
<ellipse fill="#ff3030" stroke="black" cx="225.945" cy="-866.192" rx="36" ry="36"/>
<text text-anchor="middle" x="225.945" y="-863.092" font-family="Times Roman,serif" font-size="14.00">7</text>
</g>
<!-- F&#45;&#45;H -->
<g id="edge28" class="edge"><title>F&#45;&#45;H</title>
<path fill="none" stroke="black" d="M460.97,-942.557C409.333,-925.779 312.328,-894.26 260.562,-877.44"/>
</g>
<!-- G&#45;&#45;H -->
<g id="edge30" class="edge"><title>G&#45;&#45;H</title>
<path fill="none" stroke="black" d="M321.48,-914.869C302.109,-905 277.547,-892.485 258.179,-882.616"/>
</g>
<!-- J -->
<g id="node10" class="node"><title>J</title>
<ellipse fill="#ff3030" stroke="black" cx="59.434" cy="-637.009" rx="36" ry="36"/>
<text text-anchor="middle" x="59.434" y="-633.909" font-family="Times Roman,serif" font-size="14.00">9</text>
</g>
<!-- G&#45;&#45;J -->
<g id="edge32" class="edge"><title>G&#45;&#45;J</title>
<path fill="none" stroke="black" d="M328.122,-905.697C272.465,-850.04 140.979,-718.554 85.1858,-662.761"/>
</g>
<!-- T -->
<g id="node20" class="node"><title>T</title>
<ellipse fill="#ff3030" stroke="black" cx="931.298" cy="-353.723" rx="36" ry="36"/>
<text text-anchor="middle" x="931.298" y="-350.623" font-family="Times Roman,serif" font-size="14.00">19</text>
</g>
<!-- G&#45;&#45;T -->
<g id="edge34" class="edge"><title>G&#45;&#45;T</title>
<path fill="none" stroke="black" d="M379.286,-905.736C474.8,-810.222 810.138,-474.884 905.704,-379.318"/>
</g>
<!-- I -->
<g id="node9" class="node"><title>I</title>
<ellipse fill="#ff3030" stroke="black" cx="124.54" cy="-764.787" rx="36" ry="36"/>
<text text-anchor="middle" x="124.54" y="-761.687" font-family="Times Roman,serif" font-size="14.00">8</text>
</g>
<!-- H&#45;&#45;I -->
<g id="edge36" class="edge"><title>H&#45;&#45;I</title>
<path fill="none" stroke="black" d="M200.357,-840.604C184.984,-825.231 165.492,-805.739 150.121,-790.368"/>
</g>
<!-- H&#45;&#45;J -->
<g id="edge38" class="edge"><title>H&#45;&#45;J</title>
<path fill="none" stroke="black" d="M204.518,-836.7C172.545,-792.694 112.704,-710.329 80.7794,-666.388"/>
</g>
<!-- P -->
<g id="node16" class="node"><title>P</title>
<ellipse fill="#ff3030" stroke="black" cx="495.366" cy="-37" rx="36" ry="36"/>
<text text-anchor="middle" x="495.366" y="-33.9" font-family="Times Roman,serif" font-size="14.00">15</text>
</g>
<!-- H&#45;&#45;P -->
<g id="edge40" class="edge"><title>H&#45;&#45;P</title>
<path fill="none" stroke="black" d="M237.094,-831.88C280.838,-697.251 440.486,-205.904 484.222,-71.2985"/>
</g>
<!-- I&#45;&#45;J -->
<g id="edge42" class="edge"><title>I&#45;&#45;J</title>
<path fill="none" stroke="black" d="M108.111,-732.543C98.2416,-713.173 85.7265,-688.611 75.8578,-669.243"/>
</g>
<!-- K -->
<g id="node11" class="node"><title>K</title>
<ellipse fill="#ff3030" stroke="black" cx="37" cy="-495.366" rx="36" ry="36"/>
<text text-anchor="middle" x="37" y="-492.266" font-family="Times Roman,serif" font-size="14.00">10</text>
</g>
<!-- I&#45;&#45;K -->
<g id="edge44" class="edge"><title>I&#45;&#45;K</title>
<path fill="none" stroke="black" d="M113.364,-730.391C96.5863,-678.754 65.0676,-581.749 48.2477,-529.983"/>
</g>
<!-- J&#45;&#45;K -->
<g id="edge46" class="edge"><title>J&#45;&#45;K</title>
<path fill="none" stroke="black" d="M53.773,-601.267C50.3722,-579.795 46.0598,-552.567 42.6592,-531.097"/>
</g>
<!-- J&#45;&#45;L -->
<g id="edge48" class="edge"><title>J&#45;&#45;L</title>
<path fill="none" stroke="black" d="M59.434,-600.843C59.434,-546.549 59.434,-444.552 59.434,-390.122"/>
</g>
<!-- K&#45;&#45;L -->
<g id="edge50" class="edge"><title>K&#45;&#45;L</title>
<path fill="none" stroke="black" d="M42.6611,-459.624C46.0619,-438.152 50.3743,-410.924 53.7748,-389.454"/>
</g>
<!-- M -->
<g id="node13" class="node"><title>M</title>
<ellipse fill="#ff3030" stroke="black" cx="124.54" cy="-225.945" rx="36" ry="36"/>
<text text-anchor="middle" x="124.54" y="-222.845" font-family="Times Roman,serif" font-size="14.00">12</text>
</g>
<!-- K&#45;&#45;M -->
<g id="edge52" class="edge"><title>K&#45;&#45;M</title>
<path fill="none" stroke="black" d="M48.1759,-460.97C64.9539,-409.333 96.4726,-312.328 113.293,-260.562"/>
</g>
<!-- Q -->
<g id="node17" class="node"><title>Q</title>
<ellipse fill="#ff3030" stroke="black" cx="637.009" cy="-59.434" rx="36" ry="36"/>
<text text-anchor="middle" x="637.009" y="-56.334" font-family="Times Roman,serif" font-size="14.00">16</text>
</g>
<!-- K&#45;&#45;Q -->
<g id="edge54" class="edge"><title>K&#45;&#45;Q</title>
<path fill="none" stroke="black" d="M66.3459,-474.045C168.222,-400.028 505.931,-154.668 607.72,-80.714"/>
</g>
<!-- K&#45;&#45;T -->
<g id="edge56" class="edge"><title>K&#45;&#45;T</title>
<path fill="none" stroke="black" d="M72.6094,-489.726C216.198,-466.984 751.814,-382.151 895.587,-359.379"/>
</g>
<!-- L&#45;&#45;T -->
<g id="edge58" class="edge"><title>L&#45;&#45;T</title>
<path fill="none" stroke="black" d="M95.5118,-353.723C237.07,-353.723 753.702,-353.723 895.235,-353.723"/>
</g>
<!-- N -->
<g id="node14" class="node"><title>N</title>
<ellipse fill="#ff3030" stroke="black" cx="225.945" cy="-124.54" rx="36" ry="36"/>
<text text-anchor="middle" x="225.945" y="-121.44" font-family="Times Roman,serif" font-size="14.00">13</text>
</g>
<!-- M&#45;&#45;N -->
<g id="edge60" class="edge"><title>M&#45;&#45;N</title>
<path fill="none" stroke="black" d="M150.129,-200.357C165.501,-184.984 184.994,-165.492 200.365,-150.121"/>
</g>
<!-- O -->
<g id="node15" class="node"><title>O</title>
<ellipse fill="#ff3030" stroke="black" cx="353.723" cy="-59.434" rx="36" ry="36"/>
<text text-anchor="middle" x="353.723" y="-56.334" font-family="Times Roman,serif" font-size="14.00">14</text>
</g>
<!-- M&#45;&#45;O -->
<g id="edge62" class="edge"><title>M&#45;&#45;O</title>
<path fill="none" stroke="black" d="M154.033,-204.518C198.039,-172.545 280.404,-112.704 324.344,-80.7794"/>
</g>
<!-- N&#45;&#45;O -->
<g id="edge64" class="edge"><title>N&#45;&#45;O</title>
<path fill="none" stroke="black" d="M258.189,-108.111C277.559,-98.2416 302.122,-85.7265 321.49,-75.8578"/>
</g>
<!-- N&#45;&#45;Q -->
<g id="edge66" class="edge"><title>N&#45;&#45;Q</title>
<path fill="none" stroke="black" d="M261.705,-118.876C339.545,-106.548 523.569,-77.4013 601.332,-65.0847"/>
</g>
<!-- O&#45;&#45;P -->
<g id="edge68" class="edge"><title>O&#45;&#45;P</title>
<path fill="none" stroke="black" d="M389.466,-53.773C410.938,-50.3722 438.165,-46.0598 459.635,-42.6592"/>
</g>
<!-- O&#45;&#45;Q -->
<g id="edge70" class="edge"><title>O&#45;&#45;Q</title>
<path fill="none" stroke="black" d="M389.889,-59.434C444.184,-59.434 546.181,-59.434 600.611,-59.434"/>
</g>
<!-- R -->
<g id="node18" class="node"><title>R</title>
<ellipse fill="#ff3030" stroke="black" cx="764.787" cy="-124.54" rx="36" ry="36"/>
<text text-anchor="middle" x="764.787" y="-121.44" font-family="Times Roman,serif" font-size="14.00">17</text>
</g>
<!-- P&#45;&#45;R -->
<g id="edge72" class="edge"><title>P&#45;&#45;R</title>
<path fill="none" stroke="black" d="M529.762,-48.1759C581.399,-64.9539 678.404,-96.4726 730.17,-113.293"/>
</g>
<!-- Q&#45;&#45;S -->
<g id="edge74" class="edge"><title>Q&#45;&#45;S</title>
<path fill="none" stroke="black" d="M666.502,-80.8616C710.508,-112.834 792.873,-172.676 836.813,-204.6"/>
</g>
<!-- R&#45;&#45;S -->
<g id="edge76" class="edge"><title>R&#45;&#45;S</title>
<path fill="none" stroke="black" d="M790.376,-150.129C805.748,-165.501 825.241,-184.994 840.612,-200.365"/>
</g>
<!-- R&#45;&#45;T -->
<g id="edge78" class="edge"><title>R&#45;&#45;T</title>
<path fill="none" stroke="black" d="M786.215,-154.033C818.187,-198.039 878.029,-280.404 909.953,-324.344"/>
</g>
<!-- S&#45;&#45;T -->
<g id="edge80" class="edge"><title>S&#45;&#45;T</title>
<path fill="none" stroke="black" d="M882.621,-258.189C892.491,-277.559 905.006,-302.122 914.875,-321.49"/>
</g>
</g>
</svg>
