<?xml version="1.0" encoding="UTF-8" standalone="no"?>
<!DOCTYPE svg PUBLIC "-//W3C//DTD SVG 1.1//EN"
 "http://www.w3.org/Graphics/SVG/1.1/DTD/svg11.dtd">
<!-- Generated by graphviz version 2.26.3 (20100126.1600)
 -->
<!-- Title: the_graph Pages: 1 -->
<svg width="999pt" height="999pt"
 viewBox="0.00 0.00 998.73 998.73" xmlns="http://www.w3.org/2000/svg" xmlns:xlink="http://www.w3.org/1999/xlink">
<g id="graph1" class="graph" transform="scale(1 1) rotate(0) translate(4 994.733)">
<title>the_graph</title>
<polygon fill="white" stroke="white" points="-4,5 -4,-994.733 995.733,-994.733 995.733,5 -4,5"/>
<!-- A -->
<g id="node1" class="node"><title>A</title>
<ellipse fill="#ff3030" stroke="black" cx="953.733" cy="-495.366" rx="36" ry="36"/>
<text text-anchor="middle" x="953.733" y="-492.266" font-family="Times Roman,serif" font-size="14.00">0</text>
</g>
<!-- B -->
<g id="node2" class="node"><title>B</title>
<ellipse fill="#ff3030" stroke="black" cx="931.298" cy="-637.009" rx="36" ry="36"/>
<text text-anchor="middle" x="931.298" y="-633.909" font-family="Times Roman,serif" font-size="14.00">1</text>
</g>
<!-- A&#45;&#45;B -->
<g id="edge2" class="edge"><title>A&#45;&#45;B</title>
<path fill="none" stroke="black" d="M948.071,-531.109C944.671,-552.581 940.358,-579.808 936.958,-601.278"/>
</g>
<!-- D -->
<g id="node4" class="node"><title>D</title>
<ellipse fill="#ff3030" stroke="black" cx="764.787" cy="-866.192" rx="36" ry="36"/>
<text text-anchor="middle" x="764.787" y="-863.092" font-family="Times Roman,serif" font-size="14.00">3</text>
</g>
<!-- A&#45;&#45;D -->
<g id="edge4" class="edge"><title>A&#45;&#45;D</title>
<path fill="none" stroke="black" d="M937.295,-527.626C901.517,-597.846 816.93,-763.856 781.186,-834.008"/>
</g>
<!-- H -->
<g id="node8" class="node"><title>H</title>
<ellipse fill="#ff3030" stroke="black" cx="225.945" cy="-866.192" rx="36" ry="36"/>
<text text-anchor="middle" x="225.945" y="-863.092" font-family="Times Roman,serif" font-size="14.00">7</text>
</g>
<!-- A&#45;&#45;H -->
<g id="edge6" class="edge"><title>A&#45;&#45;H</title>
<path fill="none" stroke="black" d="M921.521,-511.779C801.167,-573.102 378.617,-788.402 258.196,-849.76"/>
</g>
<!-- L -->
<g id="node12" class="node"><title>L</title>
<ellipse fill="#ff3030" stroke="black" cx="59.434" cy="-353.723" rx="36" ry="36"/>
<text text-anchor="middle" x="59.434" y="-350.623" font-family="Times Roman,serif" font-size="14.00">11</text>
</g>
<!-- A&#45;&#45;L -->
<g id="edge8" class="edge"><title>A&#45;&#45;L</title>
<path fill="none" stroke="black" d="M918.123,-489.726C774.535,-466.984 238.919,-382.151 95.1452,-359.379"/>
</g>
<!-- T -->
<g id="node20" class="node"><title>T</title>
<ellipse fill="#ff3030" stroke="black" cx="931.298" cy="-353.723" rx="36" ry="36"/>
<text text-anchor="middle" x="931.298" y="-350.623" font-family="Times Roman,serif" font-size="14.00">19</text>
</g>
<!-- A&#45;&#45;T -->
<g id="edge10" class="edge"><title>A&#45;&#45;T</title>
<path fill="none" stroke="black" d="M948.071,-459.624C944.671,-438.152 940.358,-410.924 936.958,-389.454"/>
</g>
<!-- B&#45;&#45;D -->
<g id="edge12" class="edge"><title>B&#45;&#45;D</title>
<path fill="none" stroke="black" d="M909.871,-666.502C877.899,-710.508 818.057,-792.873 786.132,-836.813"/>
</g>
<!-- J -->
<g id="node10" class="node"><title>J</title>
<ellipse fill="#ff3030" stroke="black" cx="59.434" cy="-637.009" rx="36" ry="36"/>
<text text-anchor="middle" x="59.434" y="-633.909" font-family="Times Roman,serif" font-size="14.00">9</text>
</g>
<!-- B&#45;&#45;J -->
<g id="edge14" class="edge"><title>B&#45;&#45;J</title>
<path fill="none" stroke="black" d="M895.221,-637.009C753.663,-637.009 237.031,-637.009 95.4976,-637.009"/>
</g>
<!-- M -->
<g id="node13" class="node"><title>M</title>
<ellipse fill="#ff3030" stroke="black" cx="124.54" cy="-225.945" rx="36" ry="36"/>
<text text-anchor="middle" x="124.54" y="-222.845" font-family="Times Roman,serif" font-size="14.00">12</text>
</g>
<!-- B&#45;&#45;M -->
<g id="edge16" class="edge"><title>B&#45;&#45;M</title>
<path fill="none" stroke="black" d="M899.175,-620.641C769.642,-554.641 286.456,-308.445 156.756,-242.36"/>
</g>
<!-- O -->
<g id="node15" class="node"><title>O</title>
<ellipse fill="#ff3030" stroke="black" cx="353.723" cy="-59.434" rx="36" ry="36"/>
<text text-anchor="middle" x="353.723" y="-56.334" font-family="Times Roman,serif" font-size="14.00">14</text>
</g>
<!-- B&#45;&#45;O -->
<g id="edge18" class="edge"><title>B&#45;&#45;O</title>
<path fill="none" stroke="black" d="M905.736,-611.446C810.222,-515.933 474.884,-180.595 379.318,-85.0285"/>
</g>
<!-- C -->
<g id="node3" class="node"><title>C</title>
<ellipse fill="#ff3030" stroke="black" cx="866.192" cy="-764.787" rx="36" ry="36"/>
<text text-anchor="middle" x="866.192" y="-761.687" font-family="Times Roman,serif" font-size="14.00">2</text>
</g>
<!-- C&#45;&#45;H -->
<g id="edge20" class="edge"><title>C&#45;&#45;H</title>
<path fill="none" stroke="black" d="M830.398,-770.456C718.213,-788.225 374.263,-842.701 261.882,-860.5"/>
</g>
<!-- C&#45;&#45;M -->
<g id="edge22" class="edge"><title>C&#45;&#45;M</title>
<path fill="none" stroke="black" d="M836.661,-743.331C717.447,-656.717 272.384,-333.36 153.752,-247.169"/>
</g>
<!-- S -->
<g id="node19" class="node"><title>S</title>
<ellipse fill="#ff3030" stroke="black" cx="866.192" cy="-225.945" rx="36" ry="36"/>
<text text-anchor="middle" x="866.192" y="-222.845" font-family="Times Roman,serif" font-size="14.00">18</text>
</g>
<!-- C&#45;&#45;S -->
<g id="edge24" class="edge"><title>C&#45;&#45;S</title>
<path fill="none" stroke="black" d="M866.192,-728.596C866.192,-630.433 866.192,-359.957 866.192,-261.979"/>
</g>
<!-- E -->
<g id="node5" class="node"><title>E</title>
<ellipse fill="#ff3030" stroke="black" cx="637.009" cy="-931.298" rx="36" ry="36"/>
<text text-anchor="middle" x="637.009" y="-928.198" font-family="Times Roman,serif" font-size="14.00">4</text>
</g>
<!-- D&#45;&#45;E -->
<g id="edge26" class="edge"><title>D&#45;&#45;E</title>
<path fill="none" stroke="black" d="M732.543,-882.621C713.173,-892.491 688.611,-905.006 669.243,-914.875"/>
</g>
<!-- K -->
<g id="node11" class="node"><title>K</title>
<ellipse fill="#ff3030" stroke="black" cx="37" cy="-495.366" rx="36" ry="36"/>
<text text-anchor="middle" x="37" y="-492.266" font-family="Times Roman,serif" font-size="14.00">10</text>
</g>
<!-- D&#45;&#45;K -->
<g id="edge28" class="edge"><title>D&#45;&#45;K</title>
<path fill="none" stroke="black" d="M732.576,-849.78C612.222,-788.456 189.671,-573.156 69.2509,-511.799"/>
</g>
<!-- N -->
<g id="node14" class="node"><title>N</title>
<ellipse fill="#ff3030" stroke="black" cx="225.945" cy="-124.54" rx="36" ry="36"/>
<text text-anchor="middle" x="225.945" y="-121.44" font-family="Times Roman,serif" font-size="14.00">13</text>
</g>
<!-- D&#45;&#45;N -->
<g id="edge30" class="edge"><title>D&#45;&#45;N</title>
<path fill="none" stroke="black" d="M743.331,-836.661C656.717,-717.447 333.36,-272.384 247.169,-153.752"/>
</g>
<!-- I -->
<g id="node9" class="node"><title>I</title>
<ellipse fill="#ff3030" stroke="black" cx="124.54" cy="-764.787" rx="36" ry="36"/>
<text text-anchor="middle" x="124.54" y="-761.687" font-family="Times Roman,serif" font-size="14.00">8</text>
</g>
<!-- E&#45;&#45;I -->
<g id="edge32" class="edge"><title>E&#45;&#45;I</title>
<path fill="none" stroke="black" d="M602.589,-920.115C509.231,-889.781 251.993,-806.199 158.811,-775.922"/>
</g>
<!-- E&#45;&#45;L -->
<g id="edge34" class="edge"><title>E&#45;&#45;L</title>
<path fill="none" stroke="black" d="M611.446,-905.736C515.933,-810.222 180.595,-474.884 85.0285,-379.318"/>
</g>
<!-- F -->
<g id="node6" class="node"><title>F</title>
<ellipse fill="#ff3030" stroke="black" cx="495.366" cy="-953.733" rx="36" ry="36"/>
<text text-anchor="middle" x="495.366" y="-950.633" font-family="Times Roman,serif" font-size="14.00">5</text>
</g>
<!-- G -->
<g id="node7" class="node"><title>G</title>
<ellipse fill="#ff3030" stroke="black" cx="353.723" cy="-931.298" rx="36" ry="36"/>
<text text-anchor="middle" x="353.723" y="-928.198" font-family="Times Roman,serif" font-size="14.00">6</text>
</g>
<!-- F&#45;&#45;G -->
<g id="edge36" class="edge"><title>F&#45;&#45;G</title>
<path fill="none" stroke="black" d="M459.624,-948.071C438.152,-944.671 410.924,-940.358 389.454,-936.958"/>
</g>
<!-- F&#45;&#45;I -->
<g id="edge38" class="edge"><title>F&#45;&#45;I</title>
<path fill="none" stroke="black" d="M463.107,-937.295C392.887,-901.517 226.876,-816.93 156.725,-781.186"/>
</g>
<!-- F&#45;&#45;J -->
<g id="edge40" class="edge"><title>F&#45;&#45;J</title>
<path fill="none" stroke="black" d="M466.087,-932.46C386.672,-874.761 167.852,-715.779 88.5863,-658.19"/>
</g>
<!-- F&#45;&#45;K -->
<g id="edge42" class="edge"><title>F&#45;&#45;K</title>
<path fill="none" stroke="black" d="M469.74,-928.107C389.425,-847.791 143.184,-601.55 62.7279,-521.094"/>
</g>
<!-- P -->
<g id="node16" class="node"><title>P</title>
<ellipse fill="#ff3030" stroke="black" cx="495.366" cy="-37" rx="36" ry="36"/>
<text text-anchor="middle" x="495.366" y="-33.9" font-family="Times Roman,serif" font-size="14.00">15</text>
</g>
<!-- F&#45;&#45;P -->
<g id="edge44" class="edge"><title>F&#45;&#45;P</title>
<path fill="none" stroke="black" d="M495.366,-917.513C495.366,-770.592 495.366,-219.935 495.366,-73.1467"/>
</g>
<!-- G&#45;&#45;M -->
<g id="edge46" class="edge"><title>G&#45;&#45;M</title>
<path fill="none" stroke="black" d="M342.514,-896.8C303.601,-777.037 174.608,-380.038 135.728,-260.377"/>
</g>
<!-- Q -->
<g id="node17" class="node"><title>Q</title>
<ellipse fill="#ff3030" stroke="black" cx="637.009" cy="-59.434" rx="36" ry="36"/>
<text text-anchor="middle" x="637.009" y="-56.334" font-family="Times Roman,serif" font-size="14.00">16</text>
</g>
<!-- G&#45;&#45;Q -->
<g id="edge48" class="edge"><title>G&#45;&#45;Q</title>
<path fill="none" stroke="black" d="M364.916,-896.852C410.317,-757.122 580.479,-233.415 625.839,-93.8116"/>
</g>
<!-- H&#45;&#45;I -->
<g id="edge50" class="edge"><title>H&#45;&#45;I</title>
<path fill="none" stroke="black" d="M200.357,-840.604C184.984,-825.231 165.492,-805.739 150.121,-790.368"/>
</g>
<!-- H&#45;&#45;K -->
<g id="edge52" class="edge"><title>H&#45;&#45;K</title>
<path fill="none" stroke="black" d="M209.508,-833.933C173.729,-763.713 89.1429,-597.702 53.3989,-527.551"/>
</g>
<!-- H&#45;&#45;N -->
<g id="edge54" class="edge"><title>H&#45;&#45;N</title>
<path fill="none" stroke="black" d="M225.945,-830.17C225.945,-704.562 225.945,-286.732 225.945,-160.783"/>
</g>
<!-- H&#45;&#45;P -->
<g id="edge56" class="edge"><title>H&#45;&#45;P</title>
<path fill="none" stroke="black" d="M237.094,-831.88C280.838,-697.251 440.486,-205.904 484.222,-71.2985"/>
</g>
<!-- H&#45;&#45;Q -->
<g id="edge58" class="edge"><title>H&#45;&#45;Q</title>
<path fill="none" stroke="black" d="M242.313,-834.069C308.314,-704.536 554.509,-221.35 620.595,-91.6496"/>
</g>
<!-- H&#45;&#45;T -->
<g id="edge60" class="edge"><title>H&#45;&#45;T</title>
<path fill="none" stroke="black" d="M255.355,-844.825C370.207,-761.38 787.769,-458.003 902.153,-374.898"/>
</g>
<!-- I&#45;&#45;Q -->
<g id="edge62" class="edge"><title>I&#45;&#45;Q</title>
<path fill="none" stroke="black" d="M145.908,-735.377C229.352,-620.526 532.729,-202.963 615.834,-88.5791"/>
</g>
<!-- J&#45;&#45;P -->
<g id="edge64" class="edge"><title>J&#45;&#45;P</title>
<path fill="none" stroke="black" d="M80.7551,-607.663C154.773,-505.787 400.132,-168.079 474.086,-66.2894"/>
</g>
<!-- R -->
<g id="node18" class="node"><title>R</title>
<ellipse fill="#ff3030" stroke="black" cx="764.787" cy="-124.54" rx="36" ry="36"/>
<text text-anchor="middle" x="764.787" y="-121.44" font-family="Times Roman,serif" font-size="14.00">17</text>
</g>
<!-- K&#45;&#45;R -->
<g id="edge66" class="edge"><title>K&#45;&#45;R</title>
<path fill="none" stroke="black" d="M69.2112,-478.954C189.565,-417.63 612.116,-202.33 732.536,-140.973"/>
</g>
<!-- K&#45;&#45;T -->
<g id="edge68" class="edge"><title>K&#45;&#45;T</title>
<path fill="none" stroke="black" d="M72.6094,-489.726C216.198,-466.984 751.814,-382.151 895.587,-359.379"/>
</g>
<!-- L&#45;&#45;S -->
<g id="edge70" class="edge"><title>L&#45;&#45;S</title>
<path fill="none" stroke="black" d="M95.1404,-348.068C228.554,-326.937 696.955,-252.75 830.442,-231.608"/>
</g>
<!-- M&#45;&#45;R -->
<g id="edge72" class="edge"><title>M&#45;&#45;R</title>
<path fill="none" stroke="black" d="M160.335,-220.276C272.519,-202.508 616.47,-148.031 728.85,-130.232"/>
</g>
<!-- O&#45;&#45;R -->
<g id="edge74" class="edge"><title>O&#45;&#45;R</title>
<path fill="none" stroke="black" d="M389.483,-65.0979C467.323,-77.4264 651.347,-106.573 729.11,-118.89"/>
</g>
<!-- P&#45;&#45;Q -->
<g id="edge76" class="edge"><title>P&#45;&#45;Q</title>
<path fill="none" stroke="black" d="M531.109,-42.6611C552.581,-46.0619 579.808,-50.3743 601.278,-53.7748"/>
</g>
<!-- R&#45;&#45;S -->
<g id="edge78" class="edge"><title>R&#45;&#45;S</title>
<path fill="none" stroke="black" d="M790.376,-150.129C805.748,-165.501 825.241,-184.994 840.612,-200.365"/>
</g>
<!-- S&#45;&#45;T -->
<g id="edge80" class="edge"><title>S&#45;&#45;T</title>
<path fill="none" stroke="black" d="M882.621,-258.189C892.491,-277.559 905.006,-302.122 914.875,-321.49"/>
</g>
</g>
</svg>
